<svg version="1" xmlns="http://www.w3.org/2000/svg" width="256" height="256" viewBox="0 0 192.000000 192.000000"><path d="M85 30.7c-1.4.2-6 1.5-10.2 2.9-20.9 6.8-37.6 24.9-43.3 46.9-2.1 8.3-1.9 24.2.4 33.1 8.2 31.5 39.4 53 71.4 49.3 16.7-1.9 26.7-6.9 39.2-19.4 14.4-14.3 20-27.7 19.8-47.5-.1-19.2-5.7-32.4-19.9-46.6-13-13.1-28.6-19.5-46.9-19.2-4.4 0-9.1.3-10.5.5zm2.9 33.9c9.5 5.6 9.5 21 .1 25.9-4.3 2.2-11.2 2.2-15.2-.2C59.2 82.4 64.6 63 80.3 63c2.7 0 6.1.7 7.6 1.6zm37.6 10c4.4 2.1 6.7 5.8 6.7 10.5-.1 6.8-5.5 11.9-12.4 11.9-12.5-.2-16.3-17.7-4.9-22.4 4.7-1.9 6.6-1.9 10.6 0zm-37.3 29.9c1 .4.4 1.7-2.3 4.5-5 5.2-5.9 9-5.9 24.3v12.8l-2.2-.6c-9.6-2.9-22.2-13.9-27.6-24.3-3.8-7.1-3.6-7.9 3-11.3 8.2-4.2 29.6-7.5 35-5.4zm42 5.6c7.5 1.6 13.8 4.7 13.8 6.9 0 2.8-7.3 13.2-12.7 18-9.4 8.5-23.1 13.9-35 14h-4.1l-.8-6.7c-.7-6.6 0-20.5 1.1-23.4 1.5-4 17.4-9.7 27.2-9.8 2.9-.1 7.6.4 10.5 1z"/></svg>